<?xml version="1.0" standalone="no"?>
<!DOCTYPE svg PUBLIC "-//W3C//DTD SVG 20010904//EN"
 "http://www.w3.org/TR/2001/REC-SVG-20010904/DTD/svg10.dtd">
<svg version="1.0" xmlns="http://www.w3.org/2000/svg"
 width="500.000000pt" height="500.000000pt" viewBox="0 0 500.000000 500.000000"
 preserveAspectRatio="xMidYMid meet">
<metadata>
Created by potrace 1.14, written by Peter Selinger 2001-2017
</metadata>
<g transform="translate(0.000000,500.000000) scale(0.100000,-0.100000)"
fill="#000000" stroke="none">
<path d="M2225 4905 c-255 -32 -449 -82 -664 -171 -200 -83 -432 -219 -590
-347 -125 -100 -341 -324 -433 -447 -109 -147 -206 -309 -273 -458 -55 -120
-125 -318 -145 -407 -7 -27 -14 -59 -16 -70 -11 -49 -33 -174 -38 -210 -3 -22
-8 -65 -12 -95 -8 -63 -8 -430 0 -475 2 -16 7 -55 11 -85 3 -30 8 -66 11 -80
2 -14 6 -36 9 -50 3 -14 7 -36 10 -50 3 -14 7 -35 9 -47 25 -127 106 -352 191
-528 227 -469 605 -859 1068 -1100 265 -139 557 -230 827 -260 30 -4 69 -8 85
-10 44 -7 391 -6 450 0 51 5 161 20 225 31 76 12 249 58 344 91 866 301 1491
1051 1633 1963 25 162 24 688 -2 729 -1 3 -6 31 -10 61 -10 83 -69 306 -111
416 -262 705 -824 1252 -1524 1484 -181 60 -252 78 -435 106 -134 21 -489 26
-620 9z m540 -31 c141 -16 156 -19 302 -55 770 -188 1391 -731 1686 -1474 34
-85 83 -241 93 -295 3 -14 9 -41 14 -60 5 -19 16 -75 24 -125 8 -49 18 -106
21 -125 14 -82 13 -447 -1 -559 -39 -307 -136 -616 -268 -856 -63 -114 -77
-138 -125 -209 -245 -362 -569 -643 -956 -831 -263 -127 -436 -180 -760 -231
-22 -3 -143 -7 -270 -9 -200 -3 -249 0 -380 20 -272 41 -472 104 -720 226
-239 116 -437 260 -641 463 -234 234 -409 497 -528 793 -43 109 -100 282 -109
333 -3 14 -10 43 -15 65 -17 62 -41 221 -48 315 -11 162 -7 426 10 515 2 11 6
41 10 66 42 288 155 599 319 875 49 82 189 276 240 333 57 62 204 209 248 248
190 165 467 332 704 426 180 71 461 139 630 153 44 4 81 8 83 9 10 9 343 1
437 -11z"/>
<path d="M2350 4817 c-3 -3 -41 -7 -85 -11 -44 -4 -89 -9 -100 -11 -11 -3 -38
-7 -60 -10 -122 -17 -356 -87 -510 -153 -550 -234 -982 -654 -1232 -1197 -73
-160 -151 -410 -168 -540 -4 -27 -8 -54 -9 -60 -1 -9 111 -32 118 -24 2 2 7
27 10 54 14 109 87 347 147 482 211 478 585 875 1035 1101 174 87 419 176 547
197 18 3 39 8 47 10 26 7 106 18 230 31 117 12 371 6 491 -12 43 -6 46 -4 55
64 7 57 9 55 -81 68 -51 7 -429 16 -435 11z"/>
<path d="M2909 4753 c0 -10 -2 -28 -5 -40 -4 -22 10 -40 19 -26 3 5 8 25 12
46 6 30 4 37 -9 37 -9 0 -16 -8 -17 -17z"/>
<path d="M3009 4748 c0 -2 -2 -10 -4 -19 -1 -9 -6 -26 -9 -37 -4 -12 -1 -22 8
-25 10 -4 17 6 24 33 5 22 7 42 4 45 -5 5 -21 7 -23 3z"/>
<path d="M3093 4685 c-8 -24 -8 -37 -1 -41 11 -7 28 13 28 33 0 6 3 18 6 27 4
10 1 16 -8 16 -8 0 -19 -16 -25 -35z"/>
<path d="M3191 4678 c-15 -41 -17 -61 -4 -65 16 -6 38 66 24 80 -7 7 -13 3
-20 -15z"/>
<path d="M3276 4630 c-8 -44 -8 -44 2 -48 9 -3 32 48 32 69 0 23 -28 5 -34
-21z"/>
<path d="M3366 4593 c-25 -53 -3 -67 23 -15 16 31 18 41 7 45 -8 3 -20 -9 -30
-30z"/>
<path d="M2325 4526 l6 -75 -46 -7 c-25 -3 -48 -5 -50 -2 -2 2 -8 33 -12 68
-8 64 -9 65 -38 64 -71 -3 -68 -2 -61 -36 4 -18 9 -51 12 -73 l6 -40 -74 -16
c-48 -11 -75 -13 -79 -7 -4 6 -12 37 -19 69 -7 33 -16 59 -19 59 -3 0 -35 -8
-71 -19 -143 -41 -390 -151 -390 -172 0 -7 14 -36 31 -66 17 -30 30 -55 28
-57 -4 -3 -128 -76 -143 -84 -5 -3 -6 0 -2 6 4 6 -10 36 -30 67 -29 43 -40 53
-50 44 -11 -9 -6 -22 27 -70 l39 -59 -41 -30 -42 -30 -39 55 c-21 30 -44 55
-51 55 -7 -1 -25 -12 -41 -25 l-30 -24 48 -60 c26 -34 44 -61 39 -61 -4 0 -32
-23 -60 -50 l-53 -49 -51 54 -51 54 -63 -67 c-67 -72 -168 -196 -224 -276 -27
-39 -31 -50 -20 -58 8 -5 35 -23 61 -39 l46 -30 -40 -68 -40 -69 -64 35 c-35
19 -64 29 -64 24 0 -6 27 -24 60 -41 34 -17 59 -34 57 -38 -3 -4 -21 -43 -42
-87 -72 -154 -139 -383 -170 -580 -14 -91 -13 -401 1 -515 117 -923 866 -1649
1794 -1739 90 -9 422 -7 438 2 4 3 30 8 57 11 128 17 315 71 474 137 277 116
569 335 771 579 222 269 378 630 435 1005 13 90 13 393 -1 503 -78 641 -482
1229 -1045 1522 l-108 56 29 63 c33 70 34 71 21 71 -5 0 -21 -29 -36 -64 -30
-71 -20 -68 -102 -35 l-22 8 25 62 c14 34 23 67 21 73 -3 7 -21 17 -41 23 -35
11 -37 10 -50 -20 -7 -18 -16 -43 -19 -57 -13 -49 -18 -51 -92 -28 -39 11 -71
22 -73 23 -2 2 4 30 12 63 23 86 28 79 -59 98 -38 8 -76 15 -110 20 -22 3 -51
8 -65 10 -14 2 -76 7 -137 11 l-113 6 0 -72 c0 -71 0 -71 -27 -72 -16 0 -53
-2 -83 -5 l-55 -5 1 68 c1 62 -6 82 -29 83 -4 0 -5 -33 -2 -74z m-295 -419
c30 10 197 43 270 52 41 5 149 8 240 7 187 -4 340 -30 515 -89 l100 -34 100
89 c55 48 105 88 110 88 16 0 180 -95 255 -148 271 -190 490 -442 633 -728 31
-61 65 -135 76 -165 l21 -54 -48 -45 c-26 -25 -71 -67 -100 -93 -58 -54 -56
-49 -42 -97 27 -91 52 -292 52 -416 1 -216 -22 -362 -89 -571 -36 -112 -36
-112 -16 -130 11 -10 52 -55 92 -100 l73 -82 -43 -78 c-43 -79 -140 -224 -199
-298 -39 -49 -161 -176 -221 -230 -156 -142 -375 -278 -578 -359 l-64 -26 -56
62 c-31 35 -72 80 -92 102 l-36 40 -89 -22 c-299 -72 -694 -51 -968 52 -38 14
-73 26 -80 26 -10 -1 -31 -19 -153 -131 -23 -22 -48 -39 -56 -39 -17 0 -156
75 -222 120 -340 232 -600 549 -740 905 l-27 69 38 35 c22 19 68 61 102 92
l64 58 -20 83 c-31 127 -44 230 -45 367 -3 225 22 386 90 590 l34 103 -72 82
c-40 44 -81 91 -92 102 -18 22 -18 23 19 90 156 290 414 567 682 733 95 59
245 136 326 166 l59 22 91 -103 c60 -68 96 -101 106 -97z"/>
<path d="M2407 4124 c-1 -1 -31 -4 -67 -7 -680 -59 -1273 -565 -1451 -1236
-41 -157 -62 -421 -44 -561 2 -19 7 -55 10 -80 17 -139 57 -286 115 -425 173
-413 535 -758 960 -913 92 -34 226 -69 293 -78 23 -3 67 -9 97 -14 57 -9 326
-6 395 5 106 16 249 51 333 81 172 62 382 180 502 283 30 26 68 58 84 72 90
76 257 296 336 444 64 120 140 336 155 442 3 21 8 44 10 51 25 73 25 452 0
542 -2 8 -7 31 -10 50 -12 75 -56 224 -90 307 -89 215 -202 382 -374 553 -260
259 -536 400 -911 465 -71 12 -333 27 -343 19z m277 -35 c22 -4 60 -9 82 -13
78 -10 249 -58 333 -92 356 -148 622 -377 810 -699 49 -84 56 -99 92 -180 42
-96 88 -249 103 -345 3 -19 8 -46 10 -60 19 -102 22 -326 6 -440 -5 -41 -13
-93 -16 -115 -3 -22 -8 -43 -10 -47 -3 -4 -7 -16 -9 -26 -7 -37 -26 -108 -35
-127 -4 -11 -20 -52 -34 -90 -31 -85 -129 -262 -188 -342 -23 -32 -71 -91
-107 -132 -57 -66 -84 -92 -165 -165 -182 -163 -483 -308 -746 -361 -8 -1 -40
-6 -70 -10 -30 -4 -64 -9 -75 -11 -33 -7 -297 -7 -345 0 -254 37 -484 116
-670 229 -169 104 -350 268 -463 423 -222 301 -327 637 -321 1024 2 143 4 161
36 309 101 475 430 891 879 1112 154 76 283 116 514 157 61 11 332 12 389 1z"/>
<path d="M2335 4041 c-9 -15 5 -100 17 -107 7 -4 8 14 3 52 -7 64 -10 71 -20
55z"/>
<path d="M2402 3998 c2 -28 8 -53 13 -55 6 -2 9 18 7 52 -2 30 -8 55 -13 55
-6 0 -9 -23 -7 -52z"/>
<path d="M2465 4013 c2 -21 4 -46 4 -56 1 -10 5 -16 9 -13 7 4 8 36 4 89 -1 9
-6 17 -11 17 -5 0 -7 -17 -6 -37z"/>
<path d="M2500 3999 l0 -49 58 2 57 2 -53 3 -53 4 3 37 c2 27 7 36 18 34 8 -2
11 0 7 4 -4 4 -14 9 -22 10 -12 2 -15 -9 -15 -47z"/>
<path d="M2550 4038 c0 -4 7 -8 15 -8 8 0 15 4 15 8 0 5 -7 9 -15 9 -8 0 -15
-4 -15 -9z"/>
<path d="M2271 3993 c4 -27 8 -54 8 -61 1 -7 5 -11 10 -8 14 9 -3 116 -18 116
-4 0 -4 -21 0 -47z"/>
<path d="M2620 4033 c605 -62 1097 -413 1334 -951 56 -129 116 -346 116 -423
0 -16 4 -29 9 -29 5 0 8 8 6 18 -2 9 -9 49 -16 87 -27 164 -104 369 -197 529
-78 135 -246 328 -372 429 -142 115 -345 224 -515 276 -116 36 -300 72 -359
69 -40 -1 -40 -1 -6 -5z"/>
<path d="M2207 4024 c-7 -11 6 -100 16 -110 2 -3 7 1 9 8 7 19 -16 115 -25
102z"/>
<path d="M2145 3959 c18 -68 29 -76 20 -14 -8 54 -12 65 -25 65 -4 0 -2 -23 5
-51z"/>
<path d="M2079 3997 c-5 -23 -3 -36 7 -67 20 -58 35 -47 18 12 -16 52 -23 68
-25 55z"/>
<path d="M2013 3955 c8 -45 25 -85 36 -85 5 0 3 21 -6 48 -19 57 -38 81 -30
37z"/>
<path d="M1948 3955 c-8 -8 27 -98 41 -103 7 -2 6 11 -4 37 -18 53 -30 73 -37
66z"/>
<path d="M2625 3950 c-3 -6 1 -7 9 -4 18 7 21 14 7 14 -6 0 -13 -4 -16 -10z"/>
<path d="M2673 3943 c9 -2 25 -2 35 0 9 3 1 5 -18 5 -19 0 -27 -2 -17 -5z"/>
<path d="M2730 3939 c0 -5 11 -9 25 -9 14 0 25 2 25 4 0 2 -11 6 -25 8 -14 3
-25 1 -25 -3z"/>
<path d="M1880 3927 c0 -15 43 -97 50 -97 13 0 -24 93 -39 98 -6 2 -11 2 -11
-1z"/>
<path d="M2791 3926 c2 -2 18 -6 34 -10 22 -5 26 -4 15 4 -14 9 -59 15 -49 6z"/>
<path d="M2885 3905 c17 -8 37 -14 45 -14 8 0 -1 7 -20 14 -46 18 -64 17 -25
0z"/>
<path d="M1820 3895 c0 -13 45 -95 52 -95 12 0 10 6 -12 56 -11 24 -25 44 -30
44 -6 0 -10 -2 -10 -5z"/>
<path d="M2458 3895 c-2 -2 -39 -5 -83 -8 -334 -24 -639 -168 -890 -421 -231
-232 -362 -491 -412 -811 -10 -64 -10 -312 0 -390 55 -445 324 -846 721 -1073
129 -74 286 -134 411 -156 17 -3 41 -8 55 -11 121 -26 339 -26 493 0 405 70
758 310 985 670 78 125 167 358 186 488 4 27 10 59 13 70 12 55 11 308 -2 402
-64 445 -328 829 -723 1053 -169 96 -373 162 -544 178 -71 6 -207 12 -210 9z
m228 -50 c114 -15 193 -34 295 -71 41 -14 75 -28 77 -29 2 -1 -9 -28 -23 -60
-24 -54 -24 -58 -8 -70 15 -11 20 -9 35 13 10 15 18 32 18 37 0 6 7 21 16 33
l15 22 40 -20 c21 -11 39 -23 39 -26 0 -4 -14 -30 -30 -59 l-30 -53 51 -33
c30 -19 54 -28 57 -22 4 5 20 30 36 55 l30 46 44 -34 c224 -170 389 -397 481
-657 57 -163 75 -271 75 -472 1 -153 -3 -196 -22 -284 -72 -322 -243 -600
-492 -800 -247 -199 -528 -305 -835 -317 -240 -8 -545 61 -707 163 -21 13 -40
23 -43 23 -10 0 -125 80 -180 123 -256 206 -438 505 -498 822 -28 147 -30 140
23 142 70 4 90 11 90 34 0 18 -5 20 -52 18 -66 -3 -81 -8 -74 -25 3 -8 0 -14
-5 -14 -12 0 -7 301 5 350 3 14 8 34 10 45 18 92 34 135 51 135 7 0 32 -7 55
-15 23 -8 46 -15 50 -15 4 0 17 28 30 63 12 34 40 97 62 141 21 43 38 80 36
81 -2 1 -27 17 -55 35 l-53 32 47 66 c25 37 76 100 112 141 67 76 198 191 216
191 6 0 24 -21 40 -45 17 -25 36 -45 43 -45 27 0 24 33 -7 76 -17 25 -31 46
-31 48 0 7 66 46 77 46 5 0 19 -17 31 -37 40 -70 35 -68 91 -38 28 15 49 31
47 34 -42 84 -48 105 -32 117 14 10 132 51 223 78 20 6 23 2 35 -54 l12 -62
41 7 c93 15 169 22 243 24 l32 1 0 65 0 64 63 -4 c34 -3 80 -7 103 -10z"/>
<path d="M2372 3675 c1 -19 7 -35 13 -35 7 0 11 10 9 23 -1 12 -3 28 -3 35 -1
6 -6 12 -11 12 -6 0 -10 -16 -8 -35z"/>
<path d="M2418 3705 c-7 -8 3 -65 12 -65 4 0 8 16 7 35 -1 33 -7 42 -19 30z"/>
<path d="M2460 3681 c0 -17 5 -33 10 -36 6 -4 10 8 10 29 0 20 -4 36 -10 36
-5 0 -10 -13 -10 -29z"/>
<path d="M2504 3681 c1 -31 15 -55 17 -30 0 8 2 24 5 37 2 14 -1 22 -10 22 -9
0 -13 -10 -12 -29z"/>
<path d="M2550 3674 c0 -21 4 -33 10 -29 6 3 10 19 10 36 0 16 -4 29 -10 29
-5 0 -10 -16 -10 -36z"/>
<path d="M2592 3675 c-1 -19 3 -35 8 -35 6 0 10 11 10 25 0 14 0 28 1 32 0 4
-4 9 -9 11 -5 1 -9 -13 -10 -33z"/>
<path d="M2639 3693 c0 -10 -2 -26 -4 -35 -2 -10 1 -20 6 -24 5 -3 9 -2 10 3
0 4 3 20 5 35 2 14 0 29 -6 33 -5 3 -10 -2 -11 -12z"/>
<path d="M2287 3693 c-8 -12 4 -63 14 -63 5 0 7 14 4 32 -7 36 -11 43 -18 31z"/>
<path d="M2328 3665 c2 -19 8 -35 14 -35 13 0 6 63 -8 67 -6 2 -8 -10 -6 -32z"/>
<path d="M2686 3693 c-9 -10 -7 -63 3 -63 11 0 20 59 11 65 -4 3 -10 2 -14 -2z"/>
<path d="M2240 3659 c11 -36 17 -45 26 -36 9 8 -10 60 -24 65 -8 2 -8 -6 -2
-29z"/>
<path d="M2729 3683 c0 -5 -3 -21 -5 -38 -4 -20 -2 -27 5 -20 15 16 25 65 12
65 -6 0 -11 -3 -12 -7z"/>
<path d="M2196 3672 c-8 -13 11 -62 23 -62 6 0 6 12 -1 33 -13 39 -14 41 -22
29z"/>
<path d="M2767 3648 c-8 -55 8 -54 19 0 4 19 2 32 -4 32 -5 0 -12 -15 -15 -32z"/>
<path d="M2156 3662 c-8 -14 3 -62 15 -62 11 0 11 27 0 54 -5 13 -10 16 -15 8z"/>
<path d="M2811 3643 c-7 -16 -8 -30 -3 -35 6 -6 14 3 21 23 13 38 13 39 3 39
-5 0 -14 -12 -21 -27z"/>
<path d="M2855 3629 c-9 -39 1 -50 15 -15 12 34 13 46 1 46 -5 0 -12 -14 -16
-31z"/>
<path d="M2111 3620 c6 -16 15 -30 21 -30 6 0 7 7 4 16 -3 9 -6 22 -6 30 0 8
-7 14 -14 14 -12 0 -13 -6 -5 -30z"/>
<path d="M2060 3636 c0 -15 24 -66 31 -66 11 0 11 0 -2 39 -6 17 -15 31 -20
31 -5 0 -9 -2 -9 -4z"/>
<path d="M2893 3610 c-9 -23 -8 -30 1 -30 6 0 17 14 23 30 9 23 8 30 -1 30 -6
0 -17 -13 -23 -30z"/>
<path d="M2940 3606 c-7 -13 -10 -30 -8 -38 3 -8 11 -1 21 19 9 17 13 34 8 37
-4 3 -14 -5 -21 -18z"/>
<path d="M2020 3615 c0 -12 24 -55 32 -55 11 0 10 4 -4 35 -9 21 -28 35 -28
20z"/>
<path d="M1986 3602 c-3 -6 -2 -22 4 -36 12 -32 34 -35 24 -3 -11 37 -21 51
-28 39z"/>
<path d="M2980 3584 c-6 -14 -10 -30 -10 -35 0 -19 18 1 28 31 14 37 -4 41
-18 4z"/>
<path d="M2335 3589 c-22 -4 -54 -10 -71 -13 -108 -20 -269 -87 -384 -161
-238 -153 -413 -398 -487 -684 -26 -102 -36 -279 -21 -406 19 -163 92 -357
190 -505 53 -80 191 -221 278 -282 130 -92 293 -161 455 -193 102 -20 321 -17
425 5 381 82 682 332 829 688 55 133 81 269 82 423 0 228 -70 456 -202 651
-56 82 -207 233 -286 287 -134 90 -303 158 -451 184 -89 15 -291 19 -357 6z
m352 -26 c219 -40 412 -137 569 -285 235 -222 356 -507 355 -835 0 -62 -2
-116 -4 -120 -3 -5 -8 -30 -11 -56 -9 -67 -52 -198 -91 -282 -159 -334 -482
-573 -850 -630 -76 -12 -289 -6 -365 10 -324 67 -585 251 -753 532 -65 108
-122 266 -142 398 -12 76 -14 252 -4 325 63 450 409 826 854 929 50 11 101 22
115 24 67 9 258 3 327 -10z"/>
<path d="M2514 3542 c-20 -12 -21 -56 -1 -60 14 -3 17 4 17 32 0 39 0 39 -16
28z"/>
<path d="M2323 3528 c-53 -10 -58 -15 -47 -54 5 -19 8 -20 67 -9 57 10 62 13
61 36 -3 45 5 43 -81 27z"/>
<path d="M2679 3523 c0 -4 -3 -19 -5 -33 -4 -24 0 -26 83 -48 161 -41 315
-128 444 -250 l70 -65 22 22 22 22 -76 73 c-142 135 -352 247 -509 272 -19 3
-38 8 -42 11 -5 2 -8 1 -9 -4z"/>
<path d="M2365 3439 c-433 -58 -797 -426 -842 -851 -53 -498 239 -938 712
-1073 274 -78 586 -26 822 137 163 111 308 305 374 496 40 115 63 340 45 427
-2 11 -7 43 -10 70 -9 65 -48 179 -87 258 -190 376 -598 592 -1014 536z m275
-14 c68 -9 244 -75 327 -121 74 -41 192 -134 246 -193 158 -173 266 -460 254
-676 -9 -161 -33 -249 -113 -408 -68 -136 -187 -274 -310 -358 -27 -18 -53
-39 -59 -46 -17 -22 -140 -72 -217 -88 -139 -30 -183 -35 -281 -34 -319 5
-594 153 -788 426 -70 98 -91 139 -123 235 -87 258 -53 563 89 798 27 44 52
80 55 80 17 0 0 -56 -47 -151 -78 -158 -95 -226 -99 -404 -3 -133 0 -161 21
-243 25 -96 81 -232 96 -232 13 0 11 6 -12 52 -59 116 -90 253 -90 393 0 126
1 134 26 235 17 73 69 197 97 233 12 16 13 0 13 -117 l-1 -136 42 0 41 0 1 58
c0 31 1 62 1 67 1 6 22 11 48 13 97 5 151 74 124 161 -17 59 -47 75 -155 81
l-90 5 74 80 c86 93 134 131 222 179 117 64 236 103 348 113 36 3 66 6 68 8 5
4 141 -3 192 -10z m-771 -446 c17 -6 31 -14 32 -17 0 -4 2 -16 4 -27 2 -11 -2
-28 -10 -38 -14 -19 -84 -36 -86 -21 -8 75 -1 105 27 114 1 0 15 -5 33 -11z"/>
<path d="M2355 3383 c-149 -25 -294 -85 -408 -169 -68 -50 -50 -56 20 -7 186
130 422 191 633 164 47 -6 95 -13 108 -17 12 -4 22 -2 22 4 0 9 -19 15 -105
28 -76 12 -190 11 -270 -3z"/>
<path d="M2389 3071 c-1 -3 -2 -95 -3 -204 l-1 -198 40 3 40 3 0 198 c0 108
-2 198 -5 198 -17 5 -70 4 -71 0z"/>
<path d="M2549 3061 c-1 -23 -1 -364 0 -378 1 -8 16 -13 40 -13 l38 0 -1 202
-1 203 -37 1 c-29 1 -38 -2 -39 -15z"/>
<path d="M2823 3050 c-34 -43 -39 -60 -15 -60 27 0 122 66 122 84 0 3 -19 6
-42 5 -35 0 -47 -6 -65 -29z"/>
<path d="M3034 3071 c-2 -2 -4 -94 -4 -203 l0 -198 40 0 40 0 0 42 c0 24 7 49
16 59 15 17 19 15 60 -41 43 -58 45 -60 90 -60 36 0 44 3 36 13 -5 6 -33 43
-61 81 -58 78 -60 65 23 154 l40 42 -46 0 c-44 0 -49 -3 -102 -62 l-56 -61 0
121 0 121 -36 -2 c-20 -1 -38 -4 -40 -6z"/>
<path d="M2135 2962 c-59 -13 -96 -67 -97 -142 0 -97 52 -152 143 -152 89 0
134 49 134 147 0 66 -17 103 -60 131 -24 16 -84 24 -120 16z m85 -76 c18 -22
20 -96 4 -128 -19 -36 -65 -39 -88 -6 -21 30 -21 106 1 130 19 22 66 24 83 4z"/>
<path d="M2768 2960 c-44 -13 -48 -18 -36 -46 7 -15 17 -23 27 -20 78 22 111
14 111 -25 0 -16 -8 -19 -42 -20 -98 -1 -147 -43 -133 -115 7 -37 52 -75 83
-69 10 2 27 4 40 4 12 1 31 10 43 22 l20 20 6 -20 c4 -15 13 -21 34 -21 32 0
32 0 30 159 -2 80 -10 105 -43 122 -26 14 -104 19 -140 9z m102 -185 c0 -44
-67 -68 -91 -32 -13 18 4 47 30 53 14 3 31 7 36 9 17 4 25 -5 25 -30z"/>
<path d="M3351 2808 c-1 -4 11 -47 25 -95 22 -73 27 -112 30 -228 3 -134 -6
-200 -40 -302 -4 -13 -3 -23 2 -23 20 0 62 212 62 310 0 68 -37 251 -63 310
-9 19 -16 32 -16 28z"/>
<path d="M2168 2331 c0 -3 -2 -95 -2 -203 l-2 -198 41 0 40 0 -1 77 c-2 117
13 152 62 153 39 0 48 -25 47 -131 l-2 -99 40 0 c37 0 39 2 40 33 4 108 -1
198 -11 217 -24 46 -105 58 -157 25 -21 -14 -22 -14 -19 51 2 39 -1 68 -8 72
-13 8 -65 11 -68 3z"/>
<path d="M1943 2219 c-47 -14 -67 -49 -56 -96 7 -32 16 -40 71 -67 89 -44 79
-87 -15 -65 -58 13 -62 12 -61 -21 1 -33 10 -38 81 -44 83 -8 137 27 137 89 0
43 -19 65 -81 94 -60 29 -72 57 -24 55 17 0 42 -4 56 -8 21 -6 27 -3 37 18 10
22 9 27 -7 35 -28 15 -103 21 -138 10z"/>
<path d="M2577 2213 c-94 -38 -104 -201 -16 -266 35 -26 115 -26 157 -2 60 36
81 144 40 216 -33 59 -109 81 -181 52z m103 -68 c21 -26 25 -101 6 -130 -19
-29 -66 -34 -86 -10 -21 26 -25 101 -6 130 19 29 66 34 86 10z"/>
<path d="M2963 2215 c-18 -8 -33 -20 -34 -27 0 -7 -4 -3 -10 10 -7 19 -15 23
-41 20 l-32 -3 0 -205 1 -205 40 -3 40 -3 -1 79 -1 79 22 -14 c30 -20 87 -19
119 2 29 19 45 54 50 110 10 123 -64 201 -153 160z m58 -72 c18 -20 17 -116
-1 -137 -16 -20 -54 -20 -74 0 -18 18 -22 104 -6 135 13 24 62 25 81 2z"/>
<path d="M2934 1661 c-16 -9 -56 -28 -89 -41 -72 -29 -94 -45 -48 -37 57 11
192 80 176 90 -5 3 -23 -2 -39 -12z"/>
<path d="M1726 3212 c-37 -38 -88 -98 -113 -133 -80 -116 -152 -286 -169 -400
-5 -35 -4 -37 25 -41 29 -4 31 -2 37 31 4 20 7 37 6 38 -3 6 59 167 84 215 42
83 102 167 168 236 34 35 62 66 63 70 2 4 -5 17 -15 30 l-18 23 -68 -69z"/>
<path d="M3518 2688 c-28 -10 -29 -20 -13 -106 2 -9 4 -20 4 -23 1 -3 11 -5
24 -3 12 1 26 3 31 3 9 1 1 87 -11 118 -7 17 -13 18 -35 11z"/>
<path d="M1420 2481 c0 -17 6 -20 33 -18 20 2 32 8 32 17 0 8 -13 15 -32 17
-28 4 -33 1 -33 -16z"/>
<path d="M3515 2461 c-16 -16 -1 -31 31 -31 28 0 35 3 32 18 -2 11 -13 17 -31
17 -15 1 -30 -1 -32 -4z"/>
<path d="M1428 2365 c-5 -6 9 -113 17 -126 7 -10 54 4 56 16 0 6 -2 34 -6 63
-6 49 -8 52 -34 52 -15 0 -30 -2 -33 -5z"/>
<path d="M3496 2279 c-2 -8 -11 -43 -21 -79 -41 -160 -139 -331 -254 -446 -61
-60 -61 -60 -43 -82 11 -12 22 -22 24 -22 11 0 87 77 132 134 73 90 126 181
164 276 24 61 66 210 60 215 -2 2 -15 6 -30 10 -20 5 -29 3 -32 -6z"/>
<path d="M1711 1783 c-12 -8 -21 -20 -21 -28 0 -19 131 -137 210 -189 111 -74
268 -139 383 -160 35 -7 37 -5 37 19 0 38 0 38 -87 61 -158 41 -367 163 -466
273 -33 36 -37 38 -56 24z"/>
<path d="M2675 1465 c-5 -2 -27 -6 -47 -10 -34 -5 -38 -9 -38 -36 l0 -31 63 7
c34 4 65 10 69 13 3 4 4 19 1 35 -5 25 -19 32 -48 22z"/>
<path d="M2469 1445 c-10 -37 4 -71 23 -59 15 9 9 64 -7 64 -8 0 -16 -2 -16
-5z"/>
<path d="M1940 3586 c0 -17 24 -65 30 -61 11 7 -8 65 -21 65 -5 0 -9 -2 -9 -4z"/>
<path d="M3020 3569 c-6 -11 -10 -28 -8 -37 3 -13 8 -9 21 15 20 37 21 43 7
43 -5 0 -14 -9 -20 -21z"/>
<path d="M1900 3562 c0 -6 5 -22 11 -36 14 -29 30 -26 22 4 -6 22 -33 49 -33
32z"/>
<path d="M3056 3541 c-21 -39 -7 -48 16 -11 21 35 22 40 8 40 -5 0 -16 -13
-24 -29z"/>
<path d="M1865 3528 c8 -27 35 -58 35 -41 0 19 -22 63 -32 63 -5 0 -6 -10 -3
-22z"/>
<path d="M3096 3521 c-20 -38 -7 -49 16 -14 20 31 22 43 8 43 -5 0 -16 -13
-24 -29z"/>
<path d="M1820 3519 c0 -9 9 -27 20 -40 15 -19 19 -20 20 -8 0 9 -9 27 -20 40
-15 19 -19 20 -20 8z"/>
<path d="M3132 3495 c-16 -35 -15 -40 4 -25 25 21 37 50 21 50 -8 0 -19 -11
-25 -25z"/>
<path d="M1780 3493 c1 -15 39 -58 45 -51 8 8 -24 58 -36 58 -5 0 -9 -3 -9 -7z"/>
<path d="M3167 3470 c-15 -24 -15 -30 -4 -30 11 0 37 38 37 55 0 15 -18 1 -33
-25z"/>
<path d="M1747 3473 c-3 -5 5 -22 18 -39 15 -18 24 -23 24 -14 1 21 -35 65
-42 53z"/>
<path d="M3206 3448 c-21 -30 -7 -46 15 -17 10 13 19 27 19 32 0 15 -19 6 -34
-15z"/>
<path d="M1710 3439 c0 -19 37 -55 47 -45 4 3 -5 19 -20 34 -20 19 -27 22 -27
11z"/>
<path d="M3244 3426 c-24 -37 -12 -52 14 -17 12 16 18 33 12 36 -5 3 -16 -6
-26 -19z"/>
<path d="M1670 3412 c0 -12 49 -56 55 -50 7 7 -34 58 -46 58 -5 0 -9 -4 -9 -8z"/>
<path d="M3277 3394 c-25 -33 -11 -46 13 -14 11 14 20 28 20 33 0 14 -15 6
-33 -19z"/>
<path d="M3462 3374 l-43 -41 46 -54 c26 -30 67 -86 92 -126 l46 -72 48 24
c26 14 50 29 54 35 4 6 -8 34 -25 63 -38 61 -151 205 -165 209 -5 2 -29 -15
-53 -38z"/>
<path d="M1640 3383 c1 -10 36 -53 44 -53 11 0 6 20 -11 40 -18 20 -33 26 -33
13z"/>
<path d="M3310 3365 c-32 -34 -16 -46 16 -13 14 14 22 28 16 31 -5 4 -20 -5
-32 -18z"/>
<path d="M1610 3349 c0 -13 41 -51 48 -45 5 6 -31 55 -40 56 -5 0 -8 -5 -8
-11z"/>
<path d="M3341 3336 c-13 -13 -18 -26 -13 -30 5 -3 19 5 31 18 13 13 18 26 13
30 -5 3 -19 -5 -31 -18z"/>
<path d="M1577 3322 c-8 -11 40 -58 50 -48 4 3 -5 18 -19 32 -14 14 -28 22
-31 16z"/>
<path d="M3369 3301 c-13 -11 -20 -23 -16 -27 4 -4 20 4 35 19 30 31 16 37
-19 8z"/>
<path d="M3403 3273 c-24 -25 -28 -33 -15 -33 16 1 55 41 46 49 -5 4 -19 -3
-31 -16z"/>
<path d="M1550 3282 c0 -14 39 -46 47 -39 3 4 -2 16 -12 27 -19 21 -35 26 -35
12z"/>
<path d="M1520 3249 c0 -14 30 -38 49 -39 11 0 11 3 1 16 -20 23 -50 37 -50
23z"/>
<path d="M3433 3241 c-34 -29 -28 -46 7 -21 17 12 30 26 30 31 0 14 -13 10
-37 -10z"/>
<path d="M1490 3211 c0 -12 50 -44 58 -36 4 3 -4 15 -18 25 -27 21 -40 25 -40
11z"/>
<path d="M3459 3201 c-13 -11 -21 -22 -18 -26 4 -3 20 5 35 19 34 29 18 35
-17 7z"/>
<path d="M1465 3181 c-3 -5 8 -19 24 -30 39 -28 49 -11 11 17 -16 12 -31 18
-35 13z"/>
<path d="M3475 3160 c-14 -15 -15 -20 -4 -20 15 1 49 23 49 34 0 13 -28 5 -45
-14z"/>
<path d="M1440 3141 c0 -10 39 -41 52 -41 17 0 6 17 -22 33 -16 10 -30 14 -30
8z"/>
<path d="M3510 3130 c-14 -10 -22 -22 -18 -25 8 -8 58 24 58 36 0 14 -13 10
-40 -11z"/>
<path d="M1416 3101 c-5 -7 9 -16 57 -39 4 -2 7 1 7 7 0 14 -58 43 -64 32z"/>
<path d="M3533 3093 c-33 -23 -28 -36 7 -18 17 9 30 20 30 25 0 14 -11 12 -37
-7z"/>
<path d="M1396 3061 c-5 -7 9 -16 57 -39 4 -2 7 1 7 7 0 14 -58 43 -64 32z"/>
<path d="M3553 3056 c-24 -11 -31 -26 -12 -26 17 0 49 20 49 30 0 12 -8 11
-37 -4z"/>
<path d="M1376 3021 c-3 -4 6 -13 20 -20 39 -17 52 -13 24 9 -28 22 -36 24
-44 11z"/>
<path d="M3573 3018 c-23 -11 -31 -28 -14 -28 17 0 61 27 54 33 -8 9 -13 8
-40 -5z"/>
<path d="M1355 2981 c-2 -5 7 -13 21 -20 29 -13 44 -14 44 -3 0 11 -59 32 -65
23z"/>
<path d="M3593 2978 c-20 -10 -32 -28 -19 -28 16 0 56 21 56 30 0 12 -8 12
-37 -2z"/>
<path d="M1340 2939 c0 -4 14 -15 30 -24 23 -12 30 -13 30 -2 0 7 -13 18 -30
24 -16 6 -30 7 -30 2z"/>
<path d="M3613 2938 c-20 -10 -32 -28 -19 -28 16 0 56 21 56 30 0 12 -8 12
-37 -2z"/>
<path d="M3628 2896 c-16 -5 -28 -14 -28 -19 0 -10 50 0 63 13 14 13 -6 17
-35 6z"/>
<path d="M1334 2886 c11 -9 29 -16 40 -16 28 0 8 17 -29 25 -29 6 -29 6 -11
-9z"/>
<path d="M3648 2856 c-36 -13 -36 -30 -1 -21 32 8 36 11 32 22 -2 5 -16 4 -31
-1z"/>
<path d="M1310 2852 c0 -12 24 -22 53 -22 27 0 11 16 -25 25 -17 4 -28 3 -28
-3z"/>
<path d="M1295 2810 c-6 -10 55 -30 68 -23 12 7 4 12 -32 23 -18 5 -33 5 -36
0z"/>
<path d="M3653 2813 c-24 -5 -32 -23 -10 -23 26 0 57 13 51 21 -3 5 -8 8 -12
8 -4 -1 -17 -4 -29 -6z"/>
<path d="M3680 2773 c-8 -2 -21 -6 -28 -9 -7 -2 -11 -8 -7 -13 7 -12 65 6 65
20 0 10 -7 10 -30 2z"/>
<path d="M1287 2759 c6 -6 26 -12 44 -15 32 -4 33 -4 15 11 -23 17 -77 22 -59
4z"/>
<path d="M1276 2721 c-3 -5 8 -11 25 -15 44 -8 55 -8 44 3 -15 13 -63 22 -69
12z"/>
<path d="M3660 2720 c-8 -5 -12 -11 -10 -13 8 -8 70 5 70 14 0 12 -41 11 -60
-1z"/>
<path d="M1270 2673 c0 -8 13 -13 36 -13 41 0 38 16 -6 22 -20 3 -30 0 -30 -9z"/>
<path d="M3678 2682 c-10 -2 -18 -8 -18 -14 0 -6 10 -8 23 -4 12 3 28 6 35 6
6 0 12 4 12 9 0 10 -17 10 -52 3z"/>
<path d="M3692 2643 c-39 -5 -33 -23 9 -23 19 0 29 5 29 15 0 8 -1 14 -2 13
-2 0 -18 -3 -36 -5z"/>
<path d="M1260 2630 c0 -5 8 -10 18 -11 9 0 25 -2 35 -4 21 -4 23 11 1 19 -24
9 -54 7 -54 -4z"/>
<path d="M3765 2596 c-25 -19 -1 -41 42 -37 21 2 47 4 58 4 13 1 20 10 21 25
1 21 -2 23 -53 21 -30 -1 -60 -7 -68 -13z"/>
<path d="M1263 2586 c5 -15 47 -20 59 -8 6 6 -3 11 -26 14 -23 2 -35 0 -33 -6z"/>
<path d="M3683 2593 c-19 -7 -15 -22 5 -18 9 2 25 4 35 4 9 1 17 6 17 11 0 10
-35 12 -57 3z"/>
<path d="M1110 2526 l0 -66 60 0 c33 0 60 3 61 8 8 71 7 112 -4 112 -7 1 -36
3 -64 6 l-53 6 0 -66z"/>
<path d="M3690 2550 c-19 -5 -21 -9 -10 -13 19 -8 44 -4 48 8 5 13 -8 14 -38
5z"/>
<path d="M1250 2540 c0 -5 16 -10 35 -10 19 0 35 5 35 10 0 6 -16 10 -35 10
-19 0 -35 -4 -35 -10z"/>
<path d="M1250 2499 c0 -5 3 -9 8 -10 4 0 17 -2 29 -5 12 -2 25 1 28 6 3 6 0
11 -7 11 -7 1 -23 3 -35 4 -13 1 -23 -2 -23 -6z"/>
<path d="M3675 2500 c-4 -6 8 -10 29 -10 19 0 38 5 41 10 4 6 -8 10 -29 10
-19 0 -38 -4 -41 -10z"/>
<path d="M3680 2455 c0 -12 54 -15 66 -2 4 4 3 7 -2 8 -51 6 -64 4 -64 -6z"/>
<path d="M3761 2408 c0 -32 4 -60 7 -62 4 -2 32 -6 62 -8 l55 -3 3 66 3 65
-65 0 -65 -1 0 -57z"/>
<path d="M1250 2450 c0 -5 16 -10 35 -10 19 0 35 5 35 10 0 6 -16 10 -35 10
-19 0 -35 -4 -35 -10z"/>
<path d="M1258 2409 c-7 -5 -7 -8 0 -13 14 -8 62 3 62 15 0 10 -45 8 -62 -2z"/>
<path d="M3675 2410 c-4 -6 8 -10 29 -10 19 0 38 5 41 10 4 6 -8 10 -29 10
-19 0 -38 -4 -41 -10z"/>
<path d="M3670 2369 c0 -5 6 -9 13 -10 6 0 23 -2 35 -5 15 -3 22 0 20 8 -5 14
-68 21 -68 7z"/>
<path d="M1255 2360 c7 -12 64 -10 71 2 3 4 -13 8 -36 8 -25 0 -39 -4 -35 -10z"/>
<path d="M3682 2332 c-25 -8 -11 -22 23 -22 19 0 35 4 35 9 0 10 -40 19 -58
13z"/>
<path d="M1267 2324 c-4 -4 -5 -10 -2 -14 6 -9 65 0 65 11 0 10 -53 12 -63 3z"/>
<path d="M1269 2279 c-7 -4 -8 -9 -1 -13 12 -7 75 4 67 13 -9 8 -53 8 -66 0z"/>
<path d="M3660 2281 c0 -9 62 -22 70 -14 8 7 -24 23 -47 23 -13 0 -23 -4 -23
-9z"/>
<path d="M1310 2242 c-39 -6 -49 -22 -13 -22 18 0 35 5 38 11 9 14 5 16 -25
11z"/>
<path d="M3656 2241 c-6 -10 63 -26 71 -17 3 3 -6 10 -21 16 -33 12 -43 13
-50 1z"/>
<path d="M3653 2196 c5 -16 57 -27 57 -11 0 7 -14 15 -30 17 -18 3 -29 0 -27
-6z"/>
<path d="M1290 2190 c-8 -5 -12 -11 -9 -15 8 -8 69 6 69 16 0 12 -41 11 -60
-1z"/>
<path d="M3635 2160 c-6 -10 1 -15 37 -24 40 -9 43 9 3 21 -19 6 -37 7 -40 3z"/>
<path d="M1313 2153 c-24 -5 -32 -23 -10 -23 24 0 57 12 57 21 0 9 -8 10 -47
2z"/>
<path d="M1340 2113 c-8 -2 -21 -6 -28 -9 -7 -2 -11 -8 -7 -13 7 -12 65 6 65
20 0 10 -7 10 -30 2z"/>
<path d="M3634 2106 c22 -18 56 -21 56 -6 0 6 -6 10 -12 10 -7 0 -24 3 -38 6
-24 5 -24 5 -6 -10z"/>
<path d="M3693 2047 c-10 -29 -38 -93 -63 -144 l-45 -92 53 -32 c44 -27 55
-30 63 -18 34 50 108 214 122 271 7 25 4 27 -53 46 l-60 21 -17 -52z"/>
<path d="M1348 2068 c-29 -10 -38 -28 -15 -28 16 0 54 27 47 33 -3 2 -17 0
-32 -5z"/>
<path d="M3610 2072 c0 -12 59 -31 66 -21 3 5 -7 14 -21 19 -32 12 -45 13 -45
2z"/>
<path d="M1358 2026 c-16 -5 -28 -14 -28 -18 0 -9 50 0 63 12 15 13 -7 17 -35
6z"/>
<path d="M3590 2036 c0 -9 61 -38 68 -32 3 4 1 10 -4 15 -11 12 -64 25 -64 17z"/>
<path d="M1378 1986 c-29 -10 -38 -26 -15 -26 19 1 61 27 51 32 -5 3 -21 0
-36 -6z"/>
<path d="M3580 1992 c0 -13 50 -33 61 -26 6 3 -2 12 -16 20 -31 16 -45 18 -45
6z"/>
<path d="M1393 1944 c-18 -9 -30 -20 -27 -25 6 -11 64 17 64 31 0 12 1 13 -37
-6z"/>
<path d="M3560 1951 c0 -13 58 -32 65 -21 3 4 -9 13 -27 19 -38 13 -38 13 -38
2z"/>
<path d="M1413 1904 c-18 -9 -30 -20 -27 -25 6 -11 64 17 64 31 0 12 1 13 -37
-6z"/>
<path d="M3559 1901 c27 -25 66 -31 41 -7 -8 8 -26 17 -40 20 l-25 7 24 -20z"/>
<path d="M3520 1880 c0 -15 50 -44 60 -34 5 5 -6 16 -26 26 -19 10 -34 13 -34
8z"/>
<path d="M1427 1863 c-15 -8 -25 -18 -22 -24 7 -11 65 17 65 31 0 13 -8 11
-43 -7z"/>
<path d="M3500 1841 c0 -8 43 -41 55 -41 16 0 1 22 -25 35 -16 9 -30 11 -30 6z"/>
<path d="M1327 1811 l-48 -28 60 -90 c34 -50 80 -112 103 -137 l43 -46 43 38
c47 44 49 48 25 75 -17 18 -17 20 10 39 26 19 36 38 19 38 -4 0 -19 -11 -33
-24 l-25 -23 -38 53 c-20 30 -32 54 -26 54 18 0 60 32 54 41 -3 5 -18 0 -34
-11 -15 -11 -30 -20 -33 -20 -3 0 -15 16 -27 35 -12 19 -27 35 -33 35 -7 0
-34 -13 -60 -29z"/>
<path d="M1449 1820 c-17 -13 -19 -19 -9 -19 16 0 50 22 50 33 0 12 -18 6 -41
-14z"/>
<path d="M3480 1801 c0 -15 42 -41 53 -34 5 3 -1 14 -14 24 -27 21 -39 24 -39
10z"/>
<path d="M1500 1750 c-14 -10 -22 -22 -18 -25 8 -8 58 24 58 36 0 14 -13 10
-40 -11z"/>
<path d="M3450 1762 c0 -4 14 -16 30 -25 33 -20 40 -10 12 16 -19 18 -42 23
-42 9z"/>
<path d="M3427 1733 c-4 -3 5 -15 19 -25 25 -20 42 -19 29 1 -9 15 -41 31 -48
24z"/>
<path d="M1526 1715 c-10 -7 -16 -18 -15 -24 2 -6 18 0 34 14 32 26 15 36 -19
10z"/>
<path d="M3400 1702 c0 -15 48 -54 54 -44 3 6 -7 20 -24 32 -16 12 -30 17 -30
12z"/>
<path d="M3370 1670 c0 -10 36 -50 45 -50 3 0 5 6 5 13 -1 15 -50 52 -50 37z"/>
<path d="M1585 1647 c-16 -14 -24 -26 -18 -30 11 -7 60 39 51 48 -3 4 -18 -5
-33 -18z"/>
<path d="M1612 1614 c-13 -12 -19 -25 -14 -28 5 -3 19 5 31 18 29 31 13 39
-17 10z"/>
<path d="M3340 1632 c0 -13 35 -42 50 -42 9 0 5 9 -10 25 -24 25 -40 32 -40
17z"/>
<path d="M1647 1584 c-11 -14 -16 -28 -13 -31 8 -9 47 38 40 48 -7 12 -6 12
-27 -17z"/>
<path d="M3310 1602 c0 -5 11 -19 25 -32 28 -26 33 -16 9 18 -15 22 -34 30
-34 14z"/>
<path d="M1682 1557 c-24 -25 -28 -37 -12 -37 11 0 45 48 38 55 -2 3 -14 -5
-26 -18z"/>
<path d="M3280 1572 c0 -13 39 -46 46 -39 3 3 3 10 -1 16 -9 15 -45 33 -45 23z"/>
<path d="M1712 1525 c-12 -15 -20 -30 -17 -33 9 -9 48 35 43 49 -3 8 -12 2
-26 -16z"/>
<path d="M3261 1520 c12 -16 26 -27 31 -24 11 7 -23 53 -40 54 -8 0 -5 -10 9
-30z"/>
<path d="M3216 1521 c-7 -11 30 -58 39 -49 4 4 -2 19 -13 33 -11 14 -23 21
-26 16z"/>
<path d="M1744 1495 c-9 -14 -14 -28 -11 -32 7 -6 46 36 47 50 0 16 -20 6 -36
-18z"/>
<path d="M1780 1471 c-16 -23 -18 -31 -7 -31 15 0 44 46 35 56 -3 3 -16 -9
-28 -25z"/>
<path d="M3180 1492 c0 -13 31 -52 41 -52 6 0 2 14 -8 30 -16 28 -33 39 -33
22z"/>
<path d="M3140 1475 c0 -17 26 -55 37 -55 11 0 11 6 -4 30 -15 26 -33 40 -33
25z"/>
<path d="M1815 1439 c-13 -24 -19 -28 -30 -19 -10 9 -21 1 -49 -36 -20 -26
-35 -52 -33 -58 2 -6 25 -24 51 -40 52 -33 52 -33 92 42 l18 34 -26 22 -27 21
19 25 c22 28 25 40 10 40 -5 0 -17 -14 -25 -31z"/>
<path d="M3107 1454 c-8 -9 21 -64 33 -64 14 0 13 5 -8 40 -10 16 -22 27 -25
24z"/>
<path d="M1856 1421 c-21 -39 -7 -48 16 -11 21 35 22 40 8 40 -5 0 -16 -13
-24 -29z"/>
<path d="M3225 1427 c-17 -13 -17 -16 15 -63 18 -27 34 -51 36 -53 1 -1 12 3
23 11 21 15 21 15 -10 59 -44 61 -43 61 -64 46z"/>
<path d="M1895 1401 c-20 -39 -5 -48 17 -10 9 16 13 31 8 34 -5 3 -16 -8 -25
-24z"/>
<path d="M3078 1400 c15 -26 32 -40 32 -25 0 16 -25 55 -36 55 -10 0 -9 -8 4
-30z"/>
<path d="M1933 1380 c-14 -37 0 -49 16 -14 13 29 14 44 3 44 -4 0 -13 -13 -19
-30z"/>
<path d="M3030 1405 c0 -12 24 -55 32 -55 11 0 10 4 -4 35 -9 21 -28 35 -28
20z"/>
<path d="M1973 1360 c-14 -37 0 -49 16 -14 13 29 14 44 3 44 -4 0 -13 -13 -19
-30z"/>
<path d="M2990 1385 c0 -12 24 -55 32 -55 11 0 10 4 -4 35 -9 21 -28 35 -28
20z"/>
<path d="M2017 1350 c-8 -19 -13 -39 -10 -44 8 -13 35 42 30 62 -3 12 -8 7
-20 -18z"/>
<path d="M2956 1371 c-7 -11 13 -61 26 -61 12 0 10 14 -6 45 -8 14 -17 22 -20
16z"/>
<path d="M2061 1342 c-7 -13 -10 -31 -8 -40 3 -13 7 -10 16 12 15 37 9 59 -8
28z"/>
<path d="M2910 1356 c0 -15 24 -66 31 -66 11 0 11 0 -2 39 -6 17 -15 31 -20
31 -5 0 -9 -2 -9 -4z"/>
<path d="M3073 1337 c-24 -11 -43 -25 -43 -29 0 -12 49 -108 56 -108 10 0 104
51 104 56 0 16 -55 104 -64 103 -6 0 -30 -10 -53 -22z"/>
<path d="M2100 1326 c-12 -34 -13 -46 -1 -46 11 0 26 59 17 67 -3 3 -10 -6
-16 -21z"/>
<path d="M2870 1329 c0 -6 5 -19 11 -30 15 -28 31 -13 17 16 -11 25 -28 34
-28 14z"/>
<path d="M2138 1300 c-3 -17 -1 -33 4 -36 4 -3 8 -4 8 -2 0 2 4 18 9 36 7 24
7 32 -4 32 -7 0 -15 -14 -17 -30z"/>
<path d="M2830 1312 c0 -10 7 -27 15 -38 16 -21 20 -8 9 34 -8 26 -24 29 -24
4z"/>
<path d="M1917 1265 c-26 -54 -26 -55 -6 -66 11 -6 22 -9 25 -7 12 12 52 118
45 118 -5 0 -15 2 -23 5 -9 4 -23 -13 -41 -50z"/>
<path d="M2186 1304 c-3 -9 -6 -25 -6 -37 0 -27 16 -11 25 26 8 29 -8 39 -19
11z"/>
<path d="M2790 1289 c10 -34 17 -45 25 -38 8 8 -10 62 -23 67 -8 2 -8 -6 -2
-29z"/>
<path d="M2226 1288 c-11 -42 -7 -55 9 -34 16 22 20 56 6 56 -5 0 -11 -10 -15
-22z"/>
<path d="M2748 1304 c-9 -8 7 -57 20 -62 8 -2 8 6 2 29 -11 36 -14 41 -22 33z"/>
<path d="M2268 1276 c-7 -33 7 -55 15 -24 9 32 8 48 -2 48 -5 0 -11 -11 -13
-24z"/>
<path d="M2316 1293 c-9 -10 -7 -63 3 -63 11 0 20 59 11 65 -4 3 -10 2 -14 -2z"/>
<path d="M2704 1278 c3 -13 6 -29 6 -35 0 -7 5 -13 10 -13 11 0 13 30 4 54 -9
25 -27 19 -20 -6z"/>
<path d="M2360 1278 c0 -7 -3 -24 -7 -37 -4 -17 -2 -22 7 -19 16 5 26 68 11
68 -6 0 -11 -6 -11 -12z"/>
<path d="M2407 1283 c-11 -10 -8 -63 3 -63 6 0 10 16 10 35 0 36 -2 40 -13 28z"/>
<path d="M2577 1276 c-8 -20 7 -73 16 -59 7 12 2 61 -6 70 -3 2 -7 -3 -10 -11z"/>
<path d="M2620 1256 c0 -20 5 -36 10 -36 6 0 10 13 10 29 0 17 -4 33 -10 36
-6 4 -10 -8 -10 -29z"/>
<path d="M2663 1256 c1 -23 6 -32 15 -28 7 2 11 11 8 19 -3 8 -6 21 -6 29 0 8
-4 14 -10 14 -5 0 -9 -15 -7 -34z"/>
<path d="M2449 1278 c-7 -24 -7 -58 1 -63 5 -3 10 0 11 7 0 7 2 23 3 36 2 12
-1 22 -6 22 -4 0 -8 -1 -9 -2z"/>
<path d="M2490 1245 c0 -19 5 -35 10 -35 6 0 10 16 10 35 0 19 -4 35 -10 35
-5 0 -10 -16 -10 -35z"/>
<path d="M2530 1245 c0 -19 5 -35 10 -35 6 0 10 16 10 35 0 19 -4 35 -10 35
-5 0 -10 -16 -10 -35z"/>
<path d="M2769 1226 c-7 -7 -82 -16 -184 -23 -55 -3 -102 -9 -105 -14 -4 -6
-5 -53 -1 -113 1 -16 301 11 332 30 9 5 -21 124 -31 124 -3 0 -9 -2 -11 -4z"/>
<path d="M1768 3874 c-4 -3 5 -30 19 -58 14 -28 28 -46 30 -39 5 15 -41 106
-49 97z"/>
<path d="M3070 3840 c8 -5 20 -10 25 -10 6 0 3 5 -5 10 -8 5 -19 10 -25 10 -5
0 -3 -5 5 -10z"/>
<path d="M1727 3792 c15 -28 31 -48 36 -45 10 6 -34 85 -51 91 -8 2 -1 -17 15
-46z"/>
<path d="M3110 3826 c0 -2 7 -7 16 -10 8 -3 12 -2 9 4 -6 10 -25 14 -25 6z"/>
<path d="M1650 3801 c0 -16 51 -91 62 -91 5 0 -1 18 -14 41 -25 45 -48 69 -48
50z"/>
<path d="M3207 3776 c354 -191 624 -523 734 -904 7 -23 14 -40 17 -38 5 6 -11
58 -55 173 -86 226 -262 466 -458 623 -52 42 -189 131 -242 159 -67 34 -64 24
4 -13z"/>
<path d="M1592 3763 c23 -50 68 -101 68 -78 0 12 -53 85 -62 85 -5 0 -8 -3 -6
-7z"/>
<path d="M1540 3723 c0 -5 29 -47 57 -82 2 -2 6 -2 9 1 7 8 -45 88 -57 88 -5
0 -9 -3 -9 -7z"/>
<path d="M1490 3680 c0 -6 16 -27 36 -48 39 -40 40 -20 1 28 -23 30 -37 37
-37 20z"/>
<path d="M1440 3642 c0 -19 66 -87 73 -75 3 5 -12 27 -33 48 -22 22 -40 34
-40 27z"/>
<path d="M1417 3558 c23 -23 45 -39 48 -36 9 9 -57 78 -75 78 -9 0 2 -17 27
-42z"/>
<path d="M1346 3552 c-3 -5 12 -26 33 -46 21 -21 41 -34 44 -29 3 4 -12 25
-33 46 -21 21 -41 34 -44 29z"/>
<path d="M1300 3501 c0 -15 61 -70 78 -71 18 0 8 14 -38 50 -22 17 -40 27 -40
21z"/>
<path d="M1285 3415 c41 -35 55 -42 55 -26 0 12 -66 61 -82 61 -7 0 5 -16 27
-35z"/>
<path d="M1214 3392 c9 -15 86 -65 92 -60 6 7 -70 68 -86 68 -6 0 -9 -4 -6 -8z"/>
<path d="M1176 3342 c-6 -10 83 -67 91 -58 7 6 -13 23 -59 50 -15 9 -29 13
-32 8z"/>
<path d="M1140 3282 c0 -11 88 -57 95 -50 4 3 -13 18 -38 32 -46 27 -57 31
-57 18z"/>
<path d="M1100 3226 c0 -10 93 -55 102 -50 11 7 -66 54 -88 54 -8 0 -14 -2
-14 -4z"/>
<path d="M1076 3172 c-3 -5 17 -21 44 -35 27 -15 51 -23 54 -19 2 4 -17 20
-44 35 -27 15 -51 24 -54 19z"/>
<path d="M1046 3111 c-6 -10 91 -57 100 -48 3 3 -17 17 -44 31 -28 14 -53 22
-56 17z"/>
<path d="M1020 3049 c0 -5 21 -19 46 -29 52 -23 54 -23 54 -11 0 4 -22 18 -50
29 -27 12 -50 16 -50 11z"/>
<path d="M990 2985 c0 -5 50 -27 88 -39 41 -13 22 11 -21 28 -43 16 -67 20
-67 11z"/>
<path d="M976 2921 c-3 -4 13 -14 35 -20 23 -7 47 -15 55 -18 8 -3 14 -1 14 5
0 6 -21 17 -47 26 -55 19 -50 18 -57 7z"/>
<path d="M955 2860 c-6 -10 95 -43 103 -35 9 8 -2 14 -51 29 -26 8 -49 10 -52
6z"/>
<path d="M3962 2805 c0 -11 4 -31 8 -45 6 -20 8 -21 8 -5 0 11 -4 31 -8 45 -6
20 -8 21 -8 5z"/>
<path d="M940 2791 c0 -5 23 -14 50 -20 61 -13 60 -13 60 -2 0 5 -23 14 -50
20 -61 13 -60 13 -60 2z"/>
<path d="M930 2726 c0 -7 6 -13 13 -13 6 0 28 -4 48 -8 23 -4 39 -3 43 4 4 7
-1 11 -13 11 -27 0 -25 0 -61 10 -22 6 -30 5 -30 -4z"/>
<path d="M3981 2698 c5 -18 9 -50 9 -70 0 -20 4 -39 8 -42 4 -2 5 21 1 52 -4
31 -8 65 -8 75 -1 9 -5 17 -10 17 -6 0 -6 -12 0 -32z"/>
<path d="M920 2661 c0 -9 48 -21 88 -21 15 0 22 4 17 9 -14 12 -105 23 -105
12z"/>
<path d="M4081 2615 c-4 -15 0 -99 5 -104 8 -9 9 5 3 59 -3 30 -7 51 -8 45z"/>
<path d="M910 2591 c0 -5 25 -11 55 -13 33 -2 55 1 55 7 0 6 -25 11 -55 13
-31 2 -55 -1 -55 -7z"/>
<path d="M3998 2533 c5 -59 10 -63 11 -10 1 26 -3 47 -7 47 -4 0 -6 -17 -4
-37z"/>
<path d="M910 2529 c0 -10 -1 -10 63 -14 26 -2 47 1 47 6 0 5 -10 9 -22 10
-13 1 -38 2 -55 4 -18 1 -33 -1 -33 -6z"/>
<path d="M4080 2490 c1 -8 2 -20 1 -26 -1 -12 -51 -12 -71 1 -8 5 -11 3 -8 -6
3 -8 11 -14 19 -14 19 0 20 -110 2 -225 -66 -424 -308 -805 -662 -1042 -120
-80 -210 -127 -324 -169 -98 -36 -259 -76 -342 -84 -136 -13 -185 -14 -185 -5
0 21 -18 9 -22 -15 -4 -17 -1 -25 8 -25 8 0 14 4 14 8 0 4 21 8 48 8 422 3
875 230 1153 577 181 225 311 528 335 777 3 36 8 74 9 85 2 11 4 41 4 68 1 26
4 46 9 46 22 -4 30 3 27 22 -5 25 -18 42 -15 19z"/>
<path d="M900 2460 c0 -6 27 -10 61 -10 37 0 58 4 54 10 -3 6 -31 10 -61 10
-30 0 -54 -4 -54 -10z"/>
<path d="M930 2420 c0 -5 14 -10 30 -10 17 0 30 5 30 10 0 6 -13 10 -30 10
-16 0 -30 -4 -30 -10z"/>
<path d="M941 2360 c-11 -6 -11 -8 0 -12 17 -6 49 2 49 11 0 10 -34 11 -49 1z"/>
<path d="M963 2303 c-31 -6 -29 -23 2 -23 16 0 25 6 25 15 0 8 -1 14 -2 14 -2
-1 -13 -4 -25 -6z"/>
<path d="M963 2233 c-7 -2 -13 -8 -13 -12 0 -11 49 -1 56 10 5 9 -22 11 -43 2z"/>
<path d="M978 2173 c-19 -5 -25 -23 -9 -23 17 0 41 12 41 21 0 9 -4 10 -32 2z"/>
<path d="M975 2100 c-3 -6 5 -10 19 -10 14 0 28 5 31 10 3 6 -5 10 -19 10 -14
0 -28 -4 -31 -10z"/>
<path d="M1000 2040 c-8 -5 -12 -11 -9 -14 7 -8 49 5 49 15 0 12 -21 11 -40
-1z"/>
<path d="M1020 1980 c-8 -5 -12 -11 -9 -14 7 -8 49 5 49 15 0 12 -21 11 -40
-1z"/>
<path d="M1048 1923 c-19 -5 -25 -23 -9 -23 17 0 41 12 41 21 0 9 -4 10 -32 2z"/>
<path d="M1064 1855 c-15 -11 -16 -14 -3 -15 8 0 24 7 35 15 15 11 16 14 3 15
-8 0 -24 -7 -35 -15z"/>
<path d="M1090 1800 c-8 -5 -12 -11 -9 -14 7 -8 49 5 49 15 0 12 -21 11 -40
-1z"/>
<path d="M1133 1747 c-22 -10 -31 -27 -15 -27 12 0 48 28 42 33 -3 2 -15 0
-27 -6z"/>
<path d="M1154 1686 c-10 -8 -16 -17 -12 -21 7 -7 48 16 48 27 0 12 -14 9 -36
-6z"/>
<path d="M1189 1631 c-19 -16 -20 -20 -8 -21 17 0 45 27 37 35 -3 3 -16 -3
-29 -14z"/>
<path d="M1220 1575 c-20 -24 -5 -28 21 -6 19 16 20 20 8 21 -9 0 -22 -7 -29
-15z"/>
<path d="M1260 1525 c-21 -25 -1 -31 23 -7 17 18 18 22 5 22 -8 0 -21 -7 -28
-15z"/>
<path d="M1300 1475 c-7 -9 -10 -18 -7 -22 8 -7 37 15 37 28 0 14 -16 11 -30
-6z"/>
<path d="M1340 1425 c-21 -25 -1 -31 23 -7 17 18 18 22 5 22 -8 0 -21 -7 -28
-15z"/>
<path d="M1387 1380 c-21 -25 -5 -35 17 -11 10 11 13 21 8 24 -4 4 -16 -3 -25
-13z"/>
<path d="M1436 1335 c-13 -10 -16 -19 -10 -24 5 -6 16 0 27 15 20 27 12 31
-17 9z"/>
<path d="M1482 1289 c-7 -12 -11 -24 -8 -27 6 -6 35 27 36 41 0 14 -15 7 -28
-14z"/>
<path d="M1537 1252 c-19 -21 -22 -32 -7 -32 10 0 34 39 27 46 -2 2 -11 -4
-20 -14z"/>
<path d="M1582 1209 c-17 -27 -5 -40 14 -15 8 11 14 23 14 28 0 15 -15 8 -28
-13z"/>
<path d="M1633 1170 c-8 -11 -9 -21 -3 -25 8 -5 30 24 30 39 0 13 -16 5 -27
-14z"/>
<path d="M1692 1139 c-15 -23 -15 -29 -2 -29 13 0 32 38 22 44 -4 2 -13 -4
-20 -15z"/>
<path d="M1743 1100 c-19 -29 2 -34 21 -5 12 19 13 25 4 25 -7 0 -19 -9 -25
-20z"/>
<path d="M1804 1075 c-20 -30 -10 -47 11 -19 14 18 20 44 10 44 -2 0 -12 -11
-21 -25z"/>
<path d="M1862 1045 c-6 -13 -8 -27 -3 -29 4 -3 13 6 19 19 6 13 8 27 3 29 -4
3 -13 -6 -19 -19z"/>
<path d="M1921 1021 c-14 -24 -14 -31 -1 -31 14 0 32 38 21 45 -6 3 -15 -3
-20 -14z"/>
<path d="M1983 1003 c-3 -10 -8 -21 -10 -25 -2 -4 1 -9 5 -12 5 -3 14 6 20 19
7 15 8 26 2 30 -6 4 -13 -2 -17 -12z"/>
<path d="M2046 984 c-9 -23 -7 -46 3 -40 11 7 21 56 11 56 -4 0 -11 -7 -14
-16z"/>
<path d="M2105 959 c-6 -19 0 -38 9 -28 10 12 16 49 7 49 -5 0 -13 -9 -16 -21z"/>
<path d="M2166 948 c-8 -31 -8 -38 3 -38 12 0 22 43 12 53 -5 5 -11 -2 -15
-15z"/>
<path d="M2233 940 c-12 -28 -6 -47 9 -32 5 5 8 20 6 33 l-5 24 -10 -25z"/>
<path d="M2296 927 c-5 -15 -6 -31 -2 -34 11 -11 18 5 14 34 l-4 28 -8 -28z"/>
<path d="M2360 921 c0 -12 0 -23 0 -26 0 -3 3 -6 7 -7 10 -5 13 41 3 47 -6 3
-10 -3 -10 -14z"/>
<path d="M2420 905 c0 -14 5 -25 10 -25 6 0 10 11 10 25 0 14 -4 25 -10 25 -5
0 -10 -11 -10 -25z"/>
<path d="M3454 4556 c-13 -26 -15 -39 -7 -47 8 -8 16 -1 28 26 13 26 15 39 7
47 -8 8 -16 1 -28 -26z"/>
<path d="M3537 4509 c-16 -29 -15 -49 2 -49 6 0 41 63 41 75 0 17 -28 0 -43
-26z"/>
<path d="M3625 4465 c-14 -24 -16 -38 -9 -45 7 -7 16 0 29 25 14 24 16 38 9
45 -7 7 -16 0 -29 -25z"/>
<path d="M3705 4414 c-9 -14 -14 -33 -10 -42 4 -12 11 -8 30 21 29 42 30 47
11 47 -7 0 -21 -12 -31 -26z"/>
<path d="M3783 4356 c-18 -27 -19 -35 -8 -40 15 -5 57 52 49 66 -9 14 -19 8
-41 -26z"/>
<path d="M3410 4318 c0 -7 33 -30 73 -52 587 -314 997 -942 1055 -1616 13
-144 5 -392 -14 -495 -2 -11 -7 -36 -10 -55 -30 -175 -127 -455 -211 -609
-274 -503 -742 -868 -1298 -1011 -60 -15 -132 -31 -159 -35 -27 -3 -52 -8 -55
-9 -12 -8 -171 -19 -266 -20 -302 -1 -534 44 -818 160 -100 41 -142 62 -267
132 -135 76 -384 289 -505 432 -171 201 -300 433 -384 692 -69 209 -98 391
-100 623 -3 296 51 558 172 843 32 74 33 82 17 82 -11 0 -22 -10 -26 -22 -4
-13 -19 -50 -34 -83 -72 -158 -131 -390 -155 -609 -7 -65 -8 -329 -1 -386 2
-20 7 -60 11 -90 43 -359 234 -790 473 -1070 135 -157 361 -352 502 -432 269
-153 526 -246 783 -283 212 -30 523 -22 712 19 342 74 638 212 895 419 433
349 698 831 765 1392 12 102 13 405 1 465 -2 14 -12 72 -21 130 -43 265 -161
560 -318 795 -183 275 -437 510 -718 663 -80 44 -99 50 -99 30z"/>
<path d="M3862 4300 c-26 -34 -27 -40 -8 -40 17 0 58 54 49 64 -11 11 -19 7
-41 -24z"/>
<path d="M3941 4244 c-22 -28 -27 -44 -13 -44 12 0 52 44 52 58 0 20 -17 14
-39 -14z"/>
<path d="M4007 4175 c-23 -32 -12 -53 15 -28 11 10 24 26 29 35 15 29 -23 22
-44 -7z"/>
<path d="M4076 4111 c-19 -19 -24 -31 -16 -36 17 -10 74 40 64 57 -9 14 -19 9
-48 -21z"/>
<path d="M4146 4041 c-19 -20 -24 -31 -16 -36 13 -8 72 44 64 57 -9 14 -19 9
-48 -21z"/>
<path d="M4211 3971 c-22 -18 -30 -30 -22 -35 12 -8 71 29 71 44 0 20 -17 17
-49 -9z"/>
<path d="M4274 3897 c-15 -13 -25 -29 -23 -36 3 -9 14 -5 37 14 32 26 41 45
23 45 -6 0 -22 -10 -37 -23z"/>
<path d="M4326 3817 c-20 -16 -25 -26 -18 -31 15 -9 75 32 67 45 -9 14 -17 11
-49 -14z"/>
<path d="M4383 3741 c-21 -18 -31 -41 -17 -41 15 0 64 36 64 47 0 18 -21 15
-47 -6z"/>
<path d="M4438 3662 c-25 -15 -39 -42 -22 -42 16 0 74 43 68 51 -7 12 -15 11
-46 -9z"/>
<path d="M4482 3577 c-43 -25 -28 -46 17 -23 30 16 39 30 24 39 -5 2 -23 -5
-41 -16z"/>
<path d="M4528 3494 c-28 -14 -35 -29 -20 -37 10 -6 65 26 64 38 -1 15 -15 15
-44 -1z"/>
<path d="M4568 3407 c-27 -10 -39 -37 -18 -37 21 0 71 31 65 40 -7 12 -11 11
-47 -3z"/>
<path d="M4610 3321 c-23 -6 -42 -41 -22 -41 19 0 72 32 67 41 -7 10 -9 10
-45 0z"/>
<path d="M4638 3228 c-16 -5 -28 -17 -28 -25 0 -10 6 -13 16 -9 9 3 27 9 40
12 14 4 23 11 21 17 -5 15 -18 17 -49 5z"/>
<path d="M4673 3138 c-20 -5 -33 -15 -33 -24 0 -11 6 -14 16 -10 9 3 27 9 40
12 24 6 31 19 17 27 -5 2 -23 0 -40 -5z"/>
<path d="M4698 3046 c-49 -12 -53 -41 -5 -31 17 4 36 11 41 15 18 17 0 25 -36
16z"/>
<path d="M4712 2952 c-29 -9 -29 -27 1 -28 29 -1 59 14 52 27 -7 10 -19 10
-53 1z"/>
<path d="M4746 2859 c-16 -4 -33 -6 -38 -3 -4 3 -8 -3 -8 -13 0 -16 6 -18 36
-15 19 2 38 11 41 19 8 19 2 21 -31 12z"/>
<path d="M156 2782 c-8 -13 13 -19 97 -27 44 -5 67 -3 67 3 0 14 -22 20 -96
28 -38 4 -64 2 -68 -4z"/>
<path d="M4740 2761 c-36 -8 -38 -33 -3 -27 16 2 36 5 46 5 21 1 18 23 -4 26
-7 1 -25 -1 -39 -4z"/>
<path d="M144 2688 c-8 -13 -3 -16 31 -22 65 -11 129 -10 132 1 6 17 -153 37
-163 21z"/>
<path d="M4724 2659 c-8 -13 22 -25 51 -20 48 9 43 32 -6 29 -22 -1 -42 -5
-45 -9z"/>
<path d="M140 2584 c0 -8 3 -14 8 -15 115 -8 152 -7 152 7 0 8 -10 14 -22 15
-13 0 -49 2 -80 4 -45 3 -58 0 -58 -11z"/>
<path d="M4753 2572 c-41 -6 -27 -31 17 -29 23 1 40 7 40 13 0 14 -26 21 -57
16z"/>
<path d="M136 2486 c8 -22 164 -24 164 -2 0 10 -21 14 -85 15 -73 2 -84 0 -79
-13z"/>
<path d="M4730 2464 c0 -16 19 -21 60 -14 27 4 32 7 20 15 -22 14 -80 14 -80
-1z"/>
<path d="M193 2400 c-48 -4 -61 -8 -54 -18 7 -11 65 -12 154 -3 4 1 7 5 7 10
0 13 -37 17 -107 11z"/>
<path d="M4730 2365 c0 -11 11 -15 40 -15 29 0 40 4 40 15 0 11 -11 15 -40 15
-29 0 -40 -4 -40 -15z"/>
<path d="M168 2302 c-16 -2 -28 -9 -28 -17 0 -11 16 -12 73 -8 85 5 100 9 92
23 -6 10 -66 11 -137 2z"/>
<path d="M4720 2274 c0 -8 8 -14 18 -15 9 0 27 -2 39 -5 23 -4 40 10 25 20 -5
3 -26 7 -46 10 -27 3 -36 1 -36 -10z"/>
<path d="M4710 2176 c0 -9 14 -15 40 -18 31 -3 40 0 40 12 0 12 -11 17 -40 18
-29 2 -40 -1 -40 -12z"/>
<path d="M330 2127 c-3 -3 -32 -7 -65 -11 -33 -3 -75 -9 -93 -12 -33 -6 -33
-7 -26 -53 20 -146 85 -365 156 -531 188 -442 501 -814 900 -1073 62 -41 139
-88 171 -105 68 -37 288 -134 293 -130 2 2 19 44 37 93 35 90 35 90 13 99
-109 47 -317 153 -386 198 -449 291 -778 728 -924 1223 -19 66 -40 149 -47
185 -18 99 -24 122 -29 117z"/>
<path d="M4700 2086 c0 -9 6 -16 13 -17 6 0 24 -3 40 -5 20 -3 27 -1 27 11 0
8 -8 15 -17 15 -10 0 -28 3 -40 6 -17 5 -23 2 -23 -10z"/>
<path d="M4597 1817 c-4 -11 14 -20 68 -36 87 -25 85 -25 85 -8 0 8 -24 20
-57 30 -32 9 -65 19 -74 22 -10 4 -19 0 -22 -8z"/>
<path d="M4566 1731 c-8 -13 1 -18 85 -46 61 -21 70 -22 67 -8 -3 14 -32 28
-125 57 -12 4 -24 2 -27 -3z"/>
<path d="M4532 1639 c5 -14 137 -71 149 -63 20 12 6 22 -63 48 -81 29 -91 31
-86 15z"/>
<path d="M4495 1561 c-6 -11 2 -17 78 -53 55 -26 77 -29 77 -9 0 4 -17 15 -37
23 -21 9 -55 23 -75 32 -21 9 -39 12 -43 7z"/>
<path d="M4455 1470 c-7 -11 132 -83 146 -75 16 11 0 24 -67 55 -74 34 -71 33
-79 20z"/>
<path d="M4412 1388 c7 -20 132 -88 142 -78 12 12 13 12 -62 54 -68 38 -86 44
-80 24z"/>
<path d="M4365 1310 c-6 -10 111 -89 133 -90 27 0 5 25 -54 61 -65 41 -70 43
-79 29z"/>
<path d="M4316 1231 c-7 -11 124 -102 136 -95 16 10 7 21 -56 62 -69 45 -72
47 -80 33z"/>
<path d="M4265 1160 c-9 -15 -2 -22 64 -68 38 -27 62 -38 66 -31 8 13 8 13
-67 67 -32 24 -60 38 -63 32z"/>
<path d="M4206 1081 c-7 -11 114 -112 126 -105 16 10 7 22 -51 68 -63 49 -67
51 -75 37z"/>
<path d="M4146 1011 c-6 -9 100 -111 115 -111 24 0 12 22 -34 62 -64 55 -74
61 -81 49z"/>
<path d="M4080 942 c0 -5 26 -34 57 -65 40 -39 61 -53 68 -46 7 7 -8 27 -48
65 -55 51 -77 65 -77 46z"/>
<path d="M4016 881 c-11 -16 105 -134 118 -121 7 7 -8 29 -51 71 -37 38 -63
57 -67 50z"/>
<path d="M3946 812 c-8 -13 99 -126 112 -118 8 5 -5 27 -39 67 -51 58 -63 67
-73 51z"/>
<path d="M3876 752 c-9 -14 96 -134 107 -123 6 6 -7 30 -39 70 -49 61 -58 68
-68 53z"/>
<path d="M3805 700 c-10 -16 83 -140 100 -134 11 5 4 19 -28 62 -57 77 -64 84
-72 72z"/>
<path d="M3727 644 c-8 -9 84 -145 94 -138 15 9 10 20 -33 83 -41 60 -49 67
-61 55z"/>
<path d="M3653 593 c-8 -3 1 -26 29 -71 23 -37 43 -69 45 -71 2 -3 8 0 14 6 7
7 -3 31 -32 77 -22 36 -42 66 -43 65 0 0 -6 -3 -13 -6z"/>
<path d="M3570 539 c0 -12 56 -118 70 -133 5 -4 13 -5 19 -2 6 4 -6 34 -30 76
-38 65 -59 86 -59 59z"/>
<path d="M3493 502 c-7 -5 1 -30 26 -79 25 -50 40 -70 48 -65 9 6 3 27 -25 79
-23 45 -42 69 -49 65z"/>
<path d="M3403 448 c34 -85 62 -138 73 -138 19 0 18 4 -17 82 -18 39 -38 68
-47 68 -8 0 -12 -6 -9 -12z"/>
<path d="M3324 423 c-16 -5 46 -153 64 -153 16 0 11 21 -27 101 -14 31 -31 55
-37 52z"/>
<path d="M3230 384 c0 -3 12 -39 26 -79 18 -50 30 -72 39 -69 11 4 8 22 -13
80 -15 41 -33 74 -39 74 -7 0 -13 -3 -13 -6z"/>
<path d="M3143 347 c3 -7 13 -41 22 -75 17 -60 30 -81 42 -68 12 11 -40 156
-55 156 -8 0 -12 -6 -9 -13z"/>
<path d="M1841 268 c-25 -86 -25 -88 -7 -88 8 0 20 24 30 63 8 35 18 71 22 80
4 11 1 17 -8 17 -10 0 -23 -25 -37 -72z"/>
<path d="M3063 332 c-17 -11 25 -162 43 -155 15 5 13 15 -15 109 -11 35 -20
51 -28 46z"/>
<path d="M1932 240 c-19 -75 -17 -106 5 -77 13 16 41 129 35 145 -9 28 -21 8
-40 -68z"/>
<path d="M2964 295 c3 -9 11 -45 18 -80 7 -41 16 -65 25 -65 17 0 16 6 -3 91
-11 48 -20 69 -31 69 -9 0 -13 -6 -9 -15z"/>
<path d="M2030 233 c-16 -94 -16 -95 -4 -100 11 -4 46 145 37 160 -12 19 -22
1 -33 -60z"/>
<path d="M2874 273 c3 -10 8 -38 12 -63 3 -25 7 -52 8 -60 2 -8 11 -17 20 -18
13 -3 17 1 13 15 -3 10 -11 46 -18 81 -8 42 -16 62 -26 62 -9 0 -12 -7 -9 -17z"/>
<path d="M2126 233 c-4 -27 -9 -62 -12 -79 -3 -22 0 -33 9 -37 11 -4 16 7 21
46 4 29 9 67 12 85 4 23 1 32 -9 32 -10 0 -17 -16 -21 -47z"/>
<path d="M2786 271 c-7 -11 9 -135 19 -151 13 -22 26 -9 21 23 -3 17 -8 56
-12 85 -6 49 -16 63 -28 43z"/>
<path d="M2227 263 c-11 -18 -18 -151 -8 -157 15 -9 18 2 26 87 5 52 4 77 -3
77 -6 0 -13 -3 -15 -7z"/>
<path d="M2694 256 c-3 -7 -3 -33 0 -57 3 -24 5 -56 5 -71 1 -18 6 -28 16 -28
14 0 15 11 9 73 -4 39 -7 78 -7 85 0 16 -16 15 -23 -2z"/>
<path d="M2318 243 c-10 -40 -9 -153 1 -153 6 0 11 3 12 8 0 4 2 18 5 32 10
69 10 130 -2 130 -6 0 -14 -8 -16 -17z"/>
<path d="M2409 212 c0 -26 -2 -64 -3 -85 -2 -29 1 -37 13 -35 21 4 25 154 5
162 -11 4 -14 -6 -15 -42z"/>
<path d="M2503 175 c1 -60 6 -85 15 -85 19 0 17 156 -3 164 -13 4 -15 -8 -12
-79z"/>
<path d="M2598 188 c3 -83 7 -98 22 -98 8 0 11 24 9 68 -3 81 -8 102 -23 102
-8 0 -10 -22 -8 -72z"/>
</g>
</svg>
