<?xml version="1.0" standalone="no"?>
<!DOCTYPE svg PUBLIC "-//W3C//DTD SVG 20010904//EN"
 "http://www.w3.org/TR/2001/REC-SVG-20010904/DTD/svg10.dtd">
<svg version="1.0" xmlns="http://www.w3.org/2000/svg"
 width="500.000000pt" height="500.000000pt" viewBox="0 0 500.000000 500.000000"
 preserveAspectRatio="xMidYMid meet">
<metadata>
Created by potrace 1.14, written by Peter Selinger 2001-2017
</metadata>
<g transform="translate(0.000000,500.000000) scale(0.100000,-0.100000)"
fill="#000000" stroke="none">
<path d="M2400 4159 c-69 -4 -161 -14 -205 -23 -44 -10 -91 -19 -105 -22 -91
-19 -322 -112 -415 -167 -308 -185 -530 -424 -675 -729 -49 -103 -113 -283
-123 -348 -6 -34 -11 -62 -26 -146 -13 -67 -13 -333 -1 -434 49 -401 264 -799
571 -1055 270 -225 582 -359 914 -390 67 -7 287 -7 325 -1 14 3 51 7 83 11 32
3 64 8 70 10 7 3 23 6 37 9 101 17 274 78 390 136 396 200 705 556 838 965 61
185 75 281 78 510 1 184 -1 224 -21 322 -92 453 -343 834 -710 1076 -134 88
-354 193 -445 212 -8 2 -42 10 -75 18 -160 41 -316 55 -505 46z"/>
</g>
</svg>
